<svg width="512" height="512" viewBox="0 0 512 512" fill="none" xmlns="http://www.w3.org/2000/svg">
<g clip-path="url(#clip0_383_13594)">
<path d="M256 512C397.385 512 512 397.385 512 256C512 114.615 397.385 0 256 0C114.615 0 0 114.615 0 256C0 397.385 114.615 512 256 512Z" fill="#101010"/>
<path d="M418.746 179.405H436.064V153.37H418.746V121.261H375.354V136.013H136.57V121.261H93.1776V153.37H75.9296V179.405H93.1776V185.696C93.1776 190.88 93.6448 195.955 94.5408 200.883H75.9296V226.918H103.885C118.355 252.806 146.022 270.31 177.786 270.31C213.03 270.31 243.238 248.755 255.962 218.106C268.678 248.749 298.886 270.31 334.138 270.31C365.901 270.31 393.568 252.806 408.038 226.918H436.07V200.883H417.389C418.285 195.955 418.752 190.88 418.752 185.696V179.405H418.746ZM206.938 214.842C199.155 222.624 188.8 226.912 177.792 226.912C166.784 226.912 156.429 222.624 148.646 214.842C140.864 207.059 136.576 196.704 136.576 185.696V179.405H219.014V185.696C219.014 196.704 214.726 207.059 206.944 214.842H206.938ZM363.283 214.842C355.501 222.624 345.146 226.912 334.138 226.912C323.13 226.912 312.774 222.624 304.992 214.842C297.21 207.059 292.922 196.704 292.922 185.696V179.405H375.36V185.696C375.36 196.704 371.072 207.059 363.29 214.842H363.283Z" fill="#FF9500"/>
<path d="M255.629 276.813C165.05 276.813 91.616 350.246 91.616 440.826C91.616 444.787 91.7568 448.71 92.0384 452.602C107.802 465.766 125.178 477.062 143.821 486.17C137.978 471.795 135.014 456.55 135.014 440.826C135.014 425.101 138.195 408.73 144.474 393.888C150.547 379.526 159.251 366.624 170.342 355.533C181.434 344.442 194.336 335.738 208.698 329.664C216.966 326.163 225.53 323.635 234.317 322.074V380.013H277.709V322.214C286.227 323.782 294.547 326.266 302.579 329.664C316.941 335.738 329.843 344.442 340.934 355.533C352.026 366.624 360.73 379.526 366.803 393.888C373.082 408.73 376.262 424.525 376.262 440.826C376.262 457.126 373.229 472.109 367.264 486.624C385.946 477.594 403.366 466.362 419.181 453.261C419.488 449.158 419.648 445.011 419.648 440.826C419.648 350.246 346.214 276.813 255.635 276.813H255.629Z" fill="#FF9500"/>
</g>
<defs>
<clipPath id="clip0_383_13594">
<rect width="512" height="512" fill="white"/>
</clipPath>
</defs>
</svg>
