<svg width="15" height="15" viewBox="0 0 15 15" fill="none" xmlns="http://www.w3.org/2000/svg">
<path d="M7.45244 14.9995C3.52592 15.0461 0.011904 11.7414 3.01463e-05 7.5263C-0.0118437 3.29451 3.48568 0.0359427 7.36207 0.00033709C11.6477 -0.0392247 15.0269 3.4088 14.9998 7.55201C14.973 11.6812 11.6057 15.0241 7.45222 14.9995H7.45244ZM11.5643 7.1142H14.2236C14.1396 5.80009 13.715 4.62027 12.9694 3.58177C12.368 3.84046 11.782 4.09278 11.1855 4.34949C11.4137 5.23963 11.5342 6.16691 11.5643 7.1142ZM14.2236 7.88829C14.175 7.88609 14.1396 7.88279 14.1042 7.88279C13.2988 7.88258 12.4931 7.88455 11.6877 7.87994C11.5835 7.87928 11.5612 7.91335 11.5579 8.00961C11.5305 8.78656 11.4385 9.55582 11.2662 10.3147C11.238 10.4385 11.2099 10.562 11.1881 10.6587C11.786 10.9156 12.3693 11.1664 12.9696 11.4247C13.7157 10.386 14.1405 9.20482 14.2239 7.88807L14.2236 7.88829ZM2.05267 3.55056C1.28417 4.62379 0.858249 5.80427 0.77755 7.11222H3.28118C3.29965 6.83573 3.31329 6.56934 3.33594 6.30362C3.39157 5.64602 3.49953 4.99677 3.66423 4.3574C3.6772 4.30707 3.68534 4.27103 3.61827 4.24861C3.07889 4.0686 2.55907 3.84332 2.05289 3.55078L2.05267 3.55056ZM0.776231 7.88829C0.860448 9.20636 1.28571 10.3877 2.03376 11.4286C2.5914 11.1833 3.12902 10.9466 3.6772 10.7055C3.43928 9.79473 3.31615 8.8503 3.28668 7.88851H0.776231V7.88829ZM4.41932 4.48444C4.19152 5.35392 4.07915 6.22604 4.05255 7.11574H7.03267V4.83896C6.14719 4.80951 5.28215 4.69412 4.41932 4.48422V4.48444ZM4.41954 10.5233C5.28853 10.3077 6.15489 10.2 7.03553 10.1646V7.89115H4.05189C4.08091 8.7837 4.19174 9.65516 4.41976 10.5233H4.41954ZM10.4271 4.51895C9.56907 4.72071 8.69524 4.81852 7.81151 4.84467V7.1142H10.7886C10.838 6.67199 10.5909 4.89412 10.4273 4.51895H10.4271ZM10.44 10.4904C10.6612 9.62879 10.7727 8.76678 10.7969 7.89049H7.81437V10.1629C8.69986 10.1864 9.56775 10.2873 10.44 10.4901V10.4904ZM7.81459 0.815309V4.07915C8.62708 4.05893 9.42065 3.96838 10.2087 3.78662C10.2021 3.75519 10.2004 3.73365 10.1931 3.71387C9.97762 3.11143 9.70826 2.53603 9.33335 2.01447C9.02199 1.58149 8.65984 1.20235 8.17477 0.960808C8.06196 0.904543 7.94059 0.86564 7.81437 0.815309H7.81459ZM7.81239 10.9288V14.1753C7.8379 14.1714 7.85637 14.1709 7.8733 14.1654C7.92893 14.1472 7.98479 14.1294 8.0391 14.1074C8.44259 13.9441 8.76538 13.6716 9.04904 13.3498C9.55544 12.7755 9.89077 12.1032 10.157 11.3926C10.1771 11.3394 10.1929 11.2847 10.214 11.2207C9.41823 11.0385 8.62554 10.9462 7.81239 10.9286V10.9288ZM7.03267 14.179V10.942C6.59906 10.902 4.87251 11.1433 4.65504 11.2719C4.78499 11.7431 5.18848 12.5447 5.5425 13.0289C5.78174 13.3562 6.05484 13.6507 6.3917 13.8806C6.58608 14.0133 6.79256 14.1204 7.03267 14.1788V14.179ZM4.64052 3.75101C5.43871 3.94464 6.22965 4.04684 7.03399 4.07322V0.826518C6.72307 0.906301 6.46031 1.05576 6.22459 1.25093C5.43146 1.90809 4.99784 2.79384 4.64052 3.75101ZM12.456 2.95142C11.658 2.09645 10.7244 1.48918 9.628 1.13136C9.92661 1.49313 10.1938 1.87359 10.3996 2.29096C10.6058 2.70944 10.7881 3.14 10.9854 3.57474C11.4819 3.42111 11.9738 3.21934 12.456 2.9512V2.95142ZM10.9592 11.424C10.6472 12.3196 10.2384 13.1535 9.62558 13.8788C10.7259 13.5151 11.6639 12.9093 12.4564 12.0541C11.9705 11.7871 11.4792 11.5847 10.9592 11.4242V11.424ZM3.88411 11.479C3.59562 11.5438 2.7396 11.917 2.5527 12.0651C3.2858 12.8522 4.15084 13.4362 5.13703 13.8065C4.90703 13.4414 4.65152 13.0797 4.44285 12.6924C4.23373 12.3043 4.07124 11.8908 3.88389 11.479H3.88411ZM5.16254 1.20301C4.1504 1.57138 3.2847 2.15469 2.545 2.95164C2.9828 3.19671 3.43137 3.38594 3.90676 3.54089C4.20537 2.69032 4.59545 1.9004 5.16254 1.20301Z" fill="#B4B4B4"/>
</svg>
