<svg width="200" height="200" viewBox="0 0 200 200" fill="none" xmlns="http://www.w3.org/2000/svg">
<g clip-path="url(#clip0_17511_78)">
<path d="M197.007 124.191C183.649 177.763 129.384 210.365 75.8001 197.006C22.2382 183.65 -10.3684 129.388 2.9955 75.8198C16.3469 22.2422 70.6121 -10.3637 124.18 2.99246C177.761 16.3486 210.364 70.6168 197.007 124.191Z" fill="url(#paint0_linear_17511_78)"/>
<path fill-rule="evenodd" clip-rule="evenodd" d="M116.846 45.9519C117.739 42.6172 121.167 40.6383 124.501 41.5318C127.836 42.4253 129.815 45.8529 128.921 49.1876L126.274 59.0692L127.916 59.5091C139.739 62.6771 146.755 74.8295 143.587 86.6523L143.44 87.2012C140.97 96.4195 132.894 102.639 123.863 103.174L123.861 103.182L123.717 103.183L123.706 103.183L123.662 103.185C123.005 103.239 122.882 104.185 123.537 104.389L123.536 104.393C134.915 108.899 141.358 121.32 138.113 133.427C134.621 146.462 121.222 154.198 108.186 150.705L104.349 149.677L101.702 159.556C100.808 162.891 97.3808 164.87 94.0461 163.976C90.7115 163.083 88.7325 159.655 89.6261 156.32L92.2731 146.442L81.2941 143.5L78.6472 153.378C77.7537 156.713 74.3261 158.692 70.9914 157.798C67.6568 156.905 65.6779 153.477 66.5714 150.142L69.2183 140.264L58.2364 137.321L58.2365 137.321L52.2006 135.704C48.5628 134.729 46.404 130.99 47.3787 127.352C48.3535 123.714 52.0927 121.555 55.7305 122.53L61.7663 124.147L78.8276 60.474L73.3445 59.0048C69.7067 58.0301 67.5478 54.2909 68.5226 50.6531C69.4973 47.0153 73.2365 44.8565 76.8743 45.8312L82.3633 47.302L82.363 47.3033L91.1433 49.656L93.791 39.7747C94.6845 36.4401 98.1121 34.4611 101.447 35.3546C104.781 36.2482 106.76 39.6758 105.867 43.0104L103.219 52.8917L114.198 55.8335L116.846 45.9519ZM87.1989 88.1467C86.0504 83.8603 88.5941 79.4544 92.8806 78.3058L115.365 72.2812C119.651 71.1327 124.057 73.6765 125.205 77.9629C126.354 82.2493 123.81 86.6552 119.524 87.8038L97.0398 93.8283C92.7534 94.9769 88.3475 92.4331 87.1989 88.1467ZM76.9171 124.505C75.7686 120.218 78.3123 115.812 82.5987 114.664L105.083 108.639C109.369 107.491 113.775 110.034 114.924 114.321C116.072 118.607 113.528 123.013 109.242 124.162L86.758 130.186C82.4716 131.335 78.0657 128.791 76.9171 124.505Z" fill="white"/>
<g clip-path="url(#clip1_17511_78)">
<path d="M155 90C179.853 90 200 69.8528 200 45C200 20.1472 179.853 0 155 0C130.147 0 110 20.1472 110 45C110 69.8528 130.147 90 155 90Z" fill="#121212"/>
<g clip-path="url(#clip2_17511_78)">
<path fill-rule="evenodd" clip-rule="evenodd" d="M155.992 22.9446L136.353 34.2891V56.9938L155.992 68.3383L175.631 56.9938V34.2891L155.992 22.9446ZM156.817 17.2178C156.303 16.9222 155.681 16.9222 155.167 17.2178L131.825 30.7099C131.311 31.0056 131 31.5503 131 32.1416V59.1257C131 59.7171 131.311 60.2617 131.825 60.5574L155.167 74.0495C155.681 74.3451 156.303 74.3451 156.817 74.0495L180.16 60.5574C180.673 60.2617 180.984 59.7171 180.984 59.1257V32.1416C180.984 31.5503 180.673 31.0056 180.16 30.7099L156.817 17.2178Z" fill="#FF9211"/>
<path d="M155.992 31.161L143.465 38.3973V52.8697L155.914 60.0593C155.961 60.0904 155.992 60.1371 155.992 60.1993V62.6736C155.992 62.7981 155.852 62.8759 155.743 62.8137L141.613 54.6593C141.224 54.4415 140.991 54.0369 140.991 53.5856V37.6814C140.991 37.2457 141.224 36.8255 141.613 36.6077L155.37 28.6556C155.759 28.4377 156.226 28.4377 156.599 28.6556L170.792 36.8255C170.9 36.8878 170.9 37.0434 170.792 37.1056C169.951 37.6036 169.531 37.8215 168.582 38.3506C168.535 38.3817 168.473 38.3817 168.426 38.3506L155.992 31.161Z" fill="#FF9211"/>
<path d="M158.062 45.9451C158.062 45.8828 158.093 45.8206 158.155 45.805L170.605 39.1757C170.714 39.1135 170.854 39.1913 170.854 39.3158V55.4533C170.854 55.5156 170.823 55.5623 170.776 55.5934L158.327 62.8296C158.218 62.8919 158.078 62.8141 158.078 62.6896V45.9451H158.062Z" fill="#FF9211"/>
</g>
</g>
</g>
<defs>
<linearGradient id="paint0_linear_17511_78" x1="100" y1="0" x2="100" y2="200" gradientUnits="userSpaceOnUse">
<stop stop-color="#FEDF70"/>
<stop offset="1" stop-color="#D88528"/>
</linearGradient>
<clipPath id="clip0_17511_78">
<rect width="200" height="200" fill="white"/>
</clipPath>
<clipPath id="clip1_17511_78">
<rect width="90" height="90" fill="white" transform="translate(110)"/>
</clipPath>
<clipPath id="clip2_17511_78">
<rect width="50" height="57.2829" fill="white" transform="translate(131 17)"/>
</clipPath>
</defs>
</svg>
