<svg width="32" height="31" viewBox="0 0 32 31" fill="none" xmlns="http://www.w3.org/2000/svg">
<path d="M31.3447 18.7355C29.2776 26.7946 20.8796 31.6993 12.5871 29.6896C4.29802 27.6804 -0.748056 19.5173 1.31997 11.4588C3.38618 3.39872 11.7842 -1.50629 20.0741 0.50289C28.3661 2.51207 33.4118 10.6761 31.3445 18.7356L31.3446 18.7355H31.3447Z" fill="#FF9500"/>
<path fill-rule="evenodd" clip-rule="evenodd" d="M23.1563 12.9523C23.4643 10.9503 21.8962 9.87415 19.7519 9.15625L20.4476 6.4444L18.7492 6.03307L18.072 8.67352C17.6255 8.56528 17.167 8.46329 16.7113 8.36218L17.3933 5.70431L15.696 5.29297L15 8.00394C14.6305 7.92217 14.2676 7.84136 13.9155 7.75621L13.9175 7.74768L11.5754 7.17921L11.1236 8.94235C11.1236 8.94235 12.3836 9.22309 12.3571 9.24037C13.0448 9.40722 13.1692 9.84973 13.1486 10.2005L12.3562 13.2899C12.4035 13.3016 12.465 13.3185 12.5328 13.345L12.4834 13.333C12.4415 13.3228 12.398 13.3122 12.3532 13.3018L11.2426 17.6297C11.1585 17.8328 10.9452 18.1376 10.4644 18.0218C10.4814 18.0458 9.22994 17.7224 9.22994 17.7224L8.38672 19.612L10.5969 20.1476C10.8389 20.2066 11.0781 20.2672 11.3148 20.3271C11.4803 20.3691 11.6446 20.4107 11.8078 20.4512L11.105 23.1942L12.8014 23.6055L13.4974 20.8917C13.9608 21.014 14.4106 21.1268 14.8509 21.2331L14.1572 23.9342L15.8557 24.3455L16.5584 21.6077C19.4545 22.1404 21.6322 21.9256 22.5488 19.3795C23.2874 17.3296 22.512 16.1472 20.9884 15.3762C22.0981 15.1274 22.934 14.418 23.1569 12.9525L23.1564 12.9521L23.1563 12.9523ZM19.2759 18.2409C18.7944 20.1218 15.7656 19.3442 14.3799 18.9884L14.3798 18.9884C14.2552 18.9564 14.1438 18.9278 14.0488 18.9049L14.9815 15.2705C15.0973 15.2986 15.2388 15.3295 15.3991 15.3644L15.3991 15.3645C16.8325 15.6772 19.7693 16.3178 19.276 18.2409H19.2759ZM15.6867 13.6776C16.842 13.9773 19.3623 14.6311 19.8012 12.9216H19.8014C20.2496 11.1731 17.8003 10.646 16.604 10.3886C16.4694 10.3596 16.3507 10.334 16.2538 10.3105L15.4082 13.6067C15.488 13.626 15.5817 13.6503 15.6867 13.6776Z" fill="black"/>
</svg>
