<svg width="74" height="74" viewBox="0 0 74 74" fill="none" xmlns="http://www.w3.org/2000/svg">
<circle cx="37" cy="37" r="37" fill="#F05A23"/>
<g clip-path="url(#clip0_1060_5877)">
<path d="M54.5388 19.461C44.5931 9.51333 28.4088 9.5153 18.4612 19.461C8.51358 29.4066 8.51358 45.5929 18.4612 55.5385C28.4088 65.4862 44.5931 65.4842 54.5388 55.5385C64.4864 45.5948 64.4884 29.4066 54.5388 19.461ZM34.7593 17.4239C34.9536 16.6272 35.1106 15.7775 35.2342 14.8276L35.3461 13.9877L36.1958 13.9779C41.8418 13.9053 47.3248 15.8579 51.6304 19.4747L52.4507 20.1655L46.5477 26.0665L45.855 25.4327C42.5581 22.4184 38.9236 20.0418 35.3402 18.5641L34.5631 18.2423L34.7593 17.4239ZM31.4133 26.9222C33.6093 28.708 35.8956 30.7509 38.2113 32.992L38.9256 33.6867L32.687 39.9234L31.9923 39.211C29.7492 36.8953 27.7063 34.6091 25.9224 32.4131L25.2984 31.6438L26.0716 31.0276C27.7612 29.6794 28.6797 28.761 30.0279 27.0733L30.6441 26.3001L31.4133 26.9222ZM31.1975 25.4896L31.6528 24.7556C32.5751 23.2838 33.3346 21.7374 33.9135 20.1596L34.2726 19.1921L35.2185 19.5964C38.6077 21.0388 42.0223 23.274 45.0955 26.0607L45.8609 26.7514L39.6183 32.992L38.9236 32.3267C37.2712 30.7391 34.7083 28.3606 31.8627 26.0371L31.1975 25.4896ZM31.325 39.9253L31.9903 40.62L25.7497 46.8606L25.0589 46.0933C22.3096 43.0476 20.0959 39.6231 18.6535 36.1908L18.2571 35.2488L19.2168 34.8917C20.7789 34.3108 22.3056 33.5592 23.7539 32.6545L24.4879 32.1953L25.0334 32.8664C27.3452 35.6943 29.7296 38.2651 31.325 39.9253ZM33.3817 42.0075L34.0744 42.6727C35.7366 44.2682 38.3074 46.6545 41.1353 48.9624L41.8084 49.5079L41.3512 50.2419C40.4465 51.6882 39.6929 53.217 39.112 54.7791L38.7529 55.7367L37.8129 55.3403C34.3806 53.8999 30.9541 51.6863 27.9104 48.9369L27.1411 48.2461L33.3817 42.0075ZM41.5886 48.0754C39.3926 46.2895 37.1064 44.2466 34.7907 42.0055L34.0744 41.3108L40.313 35.0742L41.0077 35.7885C43.2508 38.1042 45.2937 40.3904 47.0776 42.5864L47.7016 43.3557L46.9265 43.9719C45.2388 45.3201 44.3184 46.2385 42.9702 47.9262L42.354 48.7014L41.5886 48.0754ZM41.675 35.0722L41.0097 34.3795L47.2503 28.1389L47.943 28.9023C50.7316 31.9735 52.9669 35.3901 54.4073 38.7773L54.8116 39.7252L53.8441 40.0823C52.2663 40.6612 50.7199 41.4246 49.248 42.3431L48.5141 42.8023L47.9685 42.1292C45.6411 39.2895 43.2606 36.7226 41.675 35.0722ZM29.4823 15.0376C30.597 14.6903 31.8019 14.4234 33.0559 14.2389L34.3845 14.0446L34.1667 15.3673C34.0842 15.8815 33.992 16.3956 33.8782 16.9039L33.6466 17.9204L32.6477 17.6261C31.5684 17.3101 30.5577 17.0825 29.6334 16.9471L25.3671 16.3191L29.4823 15.0376ZM23.1436 18.3149C25.7223 17.4652 28.9053 17.5515 32.3435 18.5641L33.3522 18.8585L32.9872 19.8436C32.4456 21.3135 31.7823 22.701 31.015 23.9648L30.4537 24.895L29.5863 24.2395C27.041 22.3183 24.8431 20.9387 23.0514 20.1419L20.7239 19.1097L23.1436 18.3149ZM19.8742 20.8209L20.404 20.3598L20.9967 20.3853C22.6824 20.7915 25.6222 22.5067 29.0643 25.0873L29.8709 25.6956L29.239 26.4885C28.607 27.2813 28.0478 27.9152 27.4806 28.4784C26.9174 29.0436 26.2835 29.6029 25.4887 30.2367L24.6998 30.8686L24.0915 30.0601C21.5108 26.62 19.7957 23.6802 19.3894 21.9945L19.2638 21.4705L19.8742 20.8209ZM17.3308 24.1983L18.104 21.7178L19.1657 24.0904C19.9664 25.8801 21.3362 28.0643 23.2417 30.5861L23.8991 31.4535L22.967 32.0167C21.7306 32.7663 20.3687 33.4198 18.9204 33.9595L17.9274 34.3284L17.6331 33.3119C16.644 29.8953 16.54 26.7456 17.3308 24.1983ZM13.2391 34.0557C13.4236 32.7977 13.6925 31.5948 14.0398 30.482L15.3174 26.3648L15.9454 30.6312C16.0808 31.5555 16.3104 32.5701 16.6244 33.6435L16.9187 34.6424L15.9022 34.876C15.3939 34.9917 14.8797 35.084 14.3636 35.1664L13.0429 35.3783L13.2391 34.0557ZM18.4749 52.6302C14.8562 48.3246 12.9036 42.8435 12.9762 37.1936L12.986 36.3458L13.8279 36.232C14.7875 36.1044 15.6392 35.9475 16.4242 35.7571L17.2386 35.5589L17.5604 36.336C19.0421 39.9175 21.4167 43.5578 24.431 46.8508L25.0648 47.5435L19.1618 53.4446L18.4749 52.6302ZM38.2407 57.5756C38.0503 58.3605 37.8933 59.2103 37.7658 60.1719L37.652 61.0118L36.8022 61.0216C31.1563 61.0942 25.6752 59.1416 21.3696 55.5248L20.5493 54.834L26.4523 48.9329L27.1431 49.5649C30.44 52.5792 34.0764 54.9537 37.6618 56.4354L38.4389 56.7572L38.2407 57.5756ZM43.5197 59.9599C42.407 60.3092 41.2001 60.5742 39.9461 60.7606L38.6214 60.9568L38.8333 59.6361C38.9158 59.1161 39.008 58.6058 39.1238 58.0956L39.3573 57.081L40.3562 57.3734C41.4297 57.6874 42.4403 57.917 43.3686 58.0524L47.6349 58.6804L43.5197 59.9599ZM49.8014 56.6669C47.2542 57.4598 44.1064 57.3558 40.6839 56.3667L39.6654 56.0723L40.0344 55.0813C40.574 53.635 41.2295 52.2711 41.9791 51.0347L42.5404 50.1026L43.4058 50.758C45.9256 52.6636 48.1098 54.0353 49.9035 54.836L52.2761 55.8977L49.8014 56.6669ZM53.1513 54.1491L52.5999 54.6358L52.0053 54.6103C50.3215 54.2021 47.3818 52.4889 43.9396 49.9083L43.1331 49.298L43.763 48.5091C45.0307 46.9214 45.9276 46.0266 47.5113 44.7588L48.3002 44.1289L48.9105 44.9374C51.4892 48.3776 53.2043 51.3173 53.6125 53.0011L53.7381 53.527L53.1513 54.1491ZM55.6849 50.8561L54.8901 53.2739L53.8578 50.9464C53.063 49.1527 51.6834 46.9548 49.7622 44.4095L49.1048 43.5441L50.0369 42.9809C51.3047 42.2135 52.6921 41.5502 54.162 41.0106L55.1471 40.6455L55.4396 41.6542C56.4502 45.0983 56.5366 48.2795 55.6849 50.8561ZM59.7609 40.9438C59.5783 42.1998 59.3115 43.4028 58.9621 44.5174L57.6865 48.6347L57.0586 44.3683C56.9232 43.446 56.6935 42.4314 56.3776 41.3559L56.0852 40.3571L57.1037 40.1235C57.612 40.0058 58.1261 39.9175 58.6364 39.8331L59.963 39.6192L59.7609 40.9438ZM59.1741 38.7616C58.2243 38.8872 57.3745 39.0462 56.5778 39.2365L55.7614 39.4347L55.4415 38.6576C53.9599 35.0722 51.5833 31.4358 48.571 28.1409L47.9391 27.4501L53.8421 21.549L54.5309 22.3673C58.1516 26.6729 60.1004 32.154 60.0297 37.802L60.0179 38.6497L59.1741 38.7616Z" fill="black"/>
</g>
<defs>
<clipPath id="clip0_1060_5877">
<rect width="51" height="51" fill="white" transform="translate(11 12)"/>
</clipPath>
</defs>
</svg>
