<svg width="32" height="31" viewBox="0 0 32 31" fill="none" xmlns="http://www.w3.org/2000/svg">
<ellipse cx="16.3731" cy="15.0944" rx="15.4757" ry="15.0436" fill="#FF9500"/>
<g clip-path="url(#clip0_1681_3454)">
<path d="M16.3731 30.138C24.9201 30.138 31.8488 23.4027 31.8488 15.0944C31.8488 6.78603 24.9201 0.0507812 16.3731 0.0507812C7.82615 0.0507812 0.897461 6.78603 0.897461 15.0944C0.897461 23.4027 7.82615 30.138 16.3731 30.138Z" fill="#FF9500"/>
<path d="M14.0635 24.8516L17.9952 5.74219H19.6892L15.7575 24.8516H14.0635ZM15.4647 22.6154C14.6979 22.6154 13.952 22.5409 13.227 22.3918C12.502 22.2427 11.8398 22.0462 11.2403 21.8023C10.6547 21.5448 10.1668 21.2602 9.77637 20.9484L10.9266 18.8748C11.3448 19.2001 11.8049 19.4779 12.3068 19.7083C12.8227 19.9388 13.3665 20.1149 13.9381 20.2369C14.5236 20.3589 15.1092 20.4199 15.6948 20.4199C16.4058 20.4199 17.0263 20.3385 17.556 20.1759C18.0858 20.0133 18.4902 19.7829 18.769 19.4847C19.0618 19.1866 19.2082 18.8274 19.2082 18.4073C19.2082 18.0278 19.0757 17.7229 18.8108 17.4925C18.5459 17.2485 18.1904 17.052 17.7442 16.9029C17.312 16.7403 16.831 16.5912 16.3012 16.4557C15.7854 16.3066 15.2626 16.1439 14.7328 15.9678C14.203 15.778 13.722 15.5477 13.2898 15.2766C12.8576 14.992 12.502 14.6328 12.2232 14.1991C11.9583 13.7654 11.8258 13.2233 11.8258 12.5728C11.8258 11.6377 12.0908 10.8313 12.6205 10.1536C13.1643 9.46243 13.9172 8.92708 14.8791 8.54762C15.8412 8.16815 16.9495 7.9784 18.2043 7.9784C19.1524 7.9784 20.0517 8.08004 20.9021 8.28334C21.7526 8.48663 22.4846 8.78478 23.098 9.17782L22.0523 11.2717C21.4947 10.9193 20.8743 10.6483 20.1911 10.4586C19.5079 10.2688 18.7969 10.174 18.0579 10.174C17.333 10.174 16.7056 10.2621 16.1758 10.4382C15.646 10.6144 15.2417 10.8584 14.9628 11.1701C14.684 11.4818 14.5376 11.8477 14.5236 12.2679C14.5236 12.6609 14.6561 12.9794 14.921 13.2233C15.1859 13.4537 15.5344 13.6502 15.9666 13.8129C16.3989 13.9755 16.8799 14.1314 17.4096 14.2804C17.9394 14.416 18.4623 14.5718 18.9781 14.748C19.5079 14.9242 19.9959 15.1478 20.442 15.4189C20.8882 15.69 21.2437 16.0355 21.5086 16.4557C21.7735 16.8623 21.9059 17.3773 21.9059 18.0007C21.9059 18.9358 21.6341 19.749 21.0903 20.4402C20.5606 21.1314 19.8077 21.6667 18.8317 22.0462C17.8697 22.4257 16.7474 22.6154 15.4647 22.6154Z" fill="black"/>
</g>
<defs>
<clipPath id="clip0_1681_3454">
<rect width="30.9513" height="30.0872" fill="white" transform="translate(0.897461 0.0507812)"/>
</clipPath>
</defs>
</svg>
