<svg width="42" height="42" viewBox="0 0 42 42" fill="none" xmlns="http://www.w3.org/2000/svg">
<path d="M34.9249 41.2452H7.09557C3.39042 41.2452 0.377441 38.2323 0.377441 34.5271V6.71813C0.377441 3.01298 3.39042 0 7.09557 0H34.9045C38.6097 0 41.6227 3.01298 41.6227 6.71813V34.5271C41.643 38.2526 38.6301 41.2452 34.9249 41.2452Z" fill="#FF9500"/>
<path d="M32.3209 12.925H33.4813V11.1742H32.3209V9.03662H29.4097V10.0138H13.449V9.03662H10.5378V11.1742H9.37744V12.925H10.5378V13.3525C10.5378 13.6986 10.5786 14.0447 10.6396 14.3704H9.3978V16.1212H11.2707C12.2479 17.8516 14.0801 19.0324 16.2177 19.0324C18.5792 19.0324 20.5947 17.587 21.4497 15.5512C22.3047 17.6073 24.3202 19.0324 26.6817 19.0324C28.7989 19.0324 30.6515 17.872 31.6287 16.1212H33.5016V14.3704H32.2598C32.3209 14.0447 32.3412 13.6986 32.3412 13.3525L32.3209 12.925ZM18.1517 15.2865C17.6224 15.8158 16.9302 16.1008 16.1974 16.1008C15.4645 16.1008 14.7723 15.8158 14.243 15.2865C13.7137 14.7572 13.4287 14.065 13.4287 13.3321V12.9046H18.9457V13.3321C18.966 14.0854 18.681 14.7776 18.1517 15.2865ZM28.6157 15.2865C28.0864 15.8158 27.3942 16.1008 26.6614 16.1008C25.9285 16.1008 25.2363 15.8158 24.707 15.2865C24.1777 14.7572 23.8927 14.065 23.8927 13.3321V12.9046H29.4097V13.3321C29.43 14.0854 29.145 14.7776 28.6157 15.2865Z" fill="black"/>
<path d="M21.409 19.4395C15.3423 19.4395 10.436 24.3457 10.436 30.4124C10.436 30.6771 10.436 30.9417 10.4564 31.2064C11.515 32.0818 12.6754 32.835 13.9172 33.4457C13.5304 32.4889 13.3269 31.471 13.3269 30.4124C13.3269 29.3538 13.5304 28.2748 13.958 27.2773C14.3651 26.3204 14.9555 25.4451 15.6884 24.7122C16.4213 23.9793 17.2967 23.3889 18.2535 22.9817C18.8032 22.7374 19.3732 22.5746 19.9636 22.4728V26.3408H22.8951V22.4728C23.4651 22.5746 24.0148 22.7374 24.5645 22.9614C25.5213 23.3685 26.3967 23.9589 27.1296 24.6918C27.8624 25.4247 28.4528 26.3001 28.86 27.2569C29.2875 28.2545 29.4911 29.3131 29.4911 30.392C29.4911 31.4914 29.2875 32.4889 28.8803 33.4457C30.1222 32.835 31.3029 32.0818 32.3616 31.2064C32.3819 30.9213 32.4023 30.6567 32.4023 30.3717C32.3819 24.3457 27.4756 19.4395 21.409 19.4395Z" fill="black"/>
</svg>
