<svg width="14" height="15" viewBox="0 0 14 15" fill="none" xmlns="http://www.w3.org/2000/svg">
<path d="M12.0052 8.18996L11.9806 8.38226L12.1305 8.50512L13.6373 9.7395L13.6372 9.73963L13.6459 9.74634C13.6472 9.74732 13.6472 9.74759 13.6469 9.74714C13.6468 9.74704 13.6468 9.747 13.6468 9.74704C13.6469 9.74715 13.6471 9.74767 13.6473 9.74882C13.6478 9.75147 13.649 9.76249 13.6402 9.78052L12.2037 12.3692L12.2036 12.3692L12.1996 12.3768C12.1974 12.3811 12.1955 12.3835 12.1945 12.3845C12.1943 12.3845 12.194 12.3844 12.1937 12.3844L10.411 11.6381L10.2183 11.5574L10.0559 11.6887C9.71167 11.9669 9.33465 12.1993 8.92486 12.3731L8.7415 12.4508L8.71466 12.6481L8.4448 14.6325L8.44475 14.6325L8.44409 14.638C8.4434 14.6438 8.44202 14.647 8.44133 14.6484L8.44039 14.6499L8.44031 14.65C8.44006 14.65 8.43972 14.65 8.43928 14.65H5.56154C5.55896 14.6475 5.55101 14.6384 5.54578 14.6184L5.27784 12.6481L5.251 12.4508L5.06764 12.3731C4.65961 12.2001 4.28911 11.9679 3.93395 11.6866L3.77203 11.5583L3.58149 11.6381L1.80783 12.3806C1.8015 12.3818 1.79722 12.3813 1.79534 12.3809C1.79475 12.3801 1.7939 12.3788 1.79286 12.3768L1.79295 12.3767L1.7888 12.3692L0.352592 9.78103C0.352021 9.77965 0.351098 9.77691 0.350511 9.77265C0.349719 9.76689 0.349804 9.76008 0.351072 9.75324C0.352342 9.74639 0.35439 9.74167 0.35573 9.73929C0.355804 9.73916 0.355873 9.73904 0.355936 9.73893L1.87566 8.50619L2.03272 8.37879L2.00078 8.1791C1.967 7.9679 1.9527 7.72939 1.9527 7.5C1.9527 7.28402 1.97968 7.0466 2.01577 6.82089L2.04771 6.6212L1.89065 6.49381L0.368914 5.25943L0.361949 5.25378L0.357955 5.25087C0.357598 5.24608 0.35829 5.23599 0.365219 5.22323C0.365268 5.22314 0.365317 5.22305 0.365367 5.22296L1.79667 2.63008L1.79675 2.63012L1.80035 2.62323C1.80264 2.61887 1.80451 2.61654 1.80549 2.61548C1.80573 2.61552 1.80599 2.61557 1.8063 2.61565L3.58899 3.36191L3.77884 3.44139L3.94059 3.31411C4.28973 3.03934 4.66793 2.79956 5.07514 2.62693L5.2585 2.54919L5.28534 2.35185L5.55445 0.372998C5.55616 0.363896 5.55868 0.357671 5.56068 0.353859C5.56156 0.352182 5.56237 0.350919 5.56302 0.35H8.43928L8.44082 0.350108L8.44108 0.350176C8.44109 0.350177 8.44172 0.350406 8.44288 0.351432C8.44473 0.353072 8.45033 0.359057 8.45307 0.373202L8.72216 2.35185L8.74899 2.54919L8.93235 2.62693C9.34039 2.79991 9.71088 3.03212 10.066 3.31343L10.228 3.44168L10.4185 3.36191L12.1922 2.61943C12.1985 2.61823 12.2028 2.61873 12.2047 2.61911C12.2052 2.61992 12.2061 2.62124 12.2071 2.62323L12.2071 2.62328L12.2112 2.63076L13.6474 5.21897C13.648 5.22035 13.6489 5.22308 13.6495 5.22735C13.6503 5.23311 13.6502 5.23992 13.6489 5.24676C13.6477 5.25361 13.6456 5.25833 13.6443 5.26071C13.6442 5.26084 13.6441 5.26096 13.6441 5.26106L12.1243 6.49381L11.9673 6.6212L11.9992 6.82089C12.033 7.03232 12.0473 7.26308 12.0473 7.5C12.0473 7.74405 12.0331 7.97135 12.0052 8.18996ZM0.353828 9.74064L0.353922 9.74057L0.353828 9.74064ZM0.354693 5.24849C0.354693 5.24849 0.354697 5.24849 0.354704 5.2485L0.354693 5.24849ZM13.6462 5.25936L13.6461 5.25943L13.6462 5.25936ZM3.95135 7.5C3.95135 9.2264 5.30895 10.6625 7 10.6625C8.69105 10.6625 10.0487 9.2264 10.0487 7.5C10.0487 5.7736 8.69105 4.3375 7 4.3375C5.30895 4.3375 3.95135 5.7736 3.95135 7.5Z" stroke="#ffffff" stroke-width="0.7"/>
</svg>
